<svg viewBox="0 0 98 16" width="100%" height="100%" xmlns="http://www.w3.org/2000/svg"><g fill="#B8B8B8" fill-rule="evenodd"><path d="M18.159.966a8.36 8.36 0 0 1 .444 2.706v1.865h-4.668V.687h-3.761l.1.281c.297.874.444 1.799.444 2.721v9.386h3.217V8.21h4.668v4.866h3.217V.688h-3.761l.1.278zM37.245 5.09c.991 0 1.47.545 1.616 1.799l2.853-.166c-.149-1.137-.395-1.716-1.071-2.458-.857-.924-2.014-1.403-3.515-1.403-3.067 0-5.13 2.111-5.13 5.262 0 3.085 1.98 5.13 4.967 5.13 1.681 0 2.985-.561 3.86-1.699.528-.644.742-1.171.874-2.243l-2.853-.165c-.18 1.171-.742 1.715-1.698 1.715-1.22 0-1.716-.825-1.716-2.838-.002-1.994.56-2.934 1.813-2.934zM28.32 8.702c0 .527.05 1.204-.28 1.65a1.751 1.751 0 0 1-1.352.676c-.776 0-1.122-.412-1.122-1.286V3.077h-2.87v6.665c0 1.403.131 1.896.56 2.506.513.725 1.436.957 2.26 1.006 1.09.083 2.458-.132 3.12-1.123.1.396.231.874.246.94h2.36V3.075l-2.953.017.032 5.61zM52.322 3.077h-2.984s-3.761 4.354-3.959 4.586V.685h-3.431l.1.298a8.36 8.36 0 0 1 .444 2.706v9.403h2.87V10.52l1.782-1.98 2.16 4.537h3.382L49.304 6.48l3.018-3.402zM77.132 4.959V3.077h-2.804v9.996h2.97V8.998c0-2.08.857-3.185 3.019-3.185V2.86c-1.255.004-2.756.68-3.185 2.099zM84.043 4.959V3.077H81.24v9.996h2.97V8.998c0-2.08.857-3.185 3.019-3.185V2.86c-1.254.004-2.738.68-3.185 2.099zM94.85 3.077l-1.914 5.674-1.896-5.674H87.92l3.597 9.996-.925 2.853h2.392c.28-.808 3.893-11.514 4.354-12.866h-2.492v.017h.002z"></path><path d="M59.168 2.896c-1.089 0-1.896.413-2.558 1.452V.685h-3.597l.1.298c.298.874.445 1.782.445 2.69v9.402h2.425c0-.017.15-.544.264-.973.71.89 1.403 1.171 2.59 1.171 2.623 0 4.172-1.947 4.172-5.247.02-3.15-1.466-5.13-3.841-5.13zm.742 5.757c-.034.479-.115 1.057-.313 1.55-.246.593-.676 1.04-1.418 1.04-.973 0-1.583-.791-1.583-2.111v-1.65c0-1.435.61-2.343 1.615-2.343 1.748-.015 1.782 2.277 1.699 3.514zM73.6 8.587c-.016-1.764-.23-2.589-.841-3.58-.776-1.303-2.326-2.11-4.058-2.11-2.97 0-4.998 2.16-4.998 5.278 0 3.05 2.045 5.098 5.112 5.098 1.518 0 2.624-.43 3.532-1.352.512-.527.79-.974 1.088-1.816l-2.755-.18c-.264.825-.857 1.269-1.765 1.269-1.203 0-1.996-.857-1.996-2.145 0-.083 0-.298.017-.462h6.665zM68.853 4.81c1.105 0 1.615.61 1.75 2.045h-3.664c.147-1.384.76-2.045 1.914-2.045z" fill-rule="nonzero"></path><path d="M6.167 5.073l-.264-.33.346.233c.776.495 1.55.94 2.31 1.32a7.735 7.735 0 0 0 .297-1.633C6.464 2.569 5.226.622 4.897.06 4.567.622 3.347 2.567.94 4.663c.049.544.149 1.088.298 1.633a25.06 25.06 0 0 0 2.308-1.32l.347-.232-.264.33A23.009 23.009 0 0 1 .395 8.306c.017.578.1 1.154.246 1.715 1.418-.527 2.673-1.137 4.24-1.979L3.527 9.66v.115c0 1.122-.18 2.243-.544 3.3h3.81a10.226 10.226 0 0 1-.545-3.3V8.768c.808.413 1.65.791 2.87 1.27a9.902 9.902 0 0 0 .247-1.716 24.398 24.398 0 0 1-3.2-3.249z"></path></g></svg>