<svg viewBox="0 0 108 23" width="100%" height="32px" xmlns="http://www.w3.org/2000/svg" fill-rule="evenodd" clip-rule="evenodd" stroke-linejoin="round" stroke-miterlimit="1.414"><g fill="#B8B8B8"><path d="M18.499.218H23.5v8.269l.15.041c.102-.174.207-.347.307-.522 1.015-1.776 2.892-2.524 4.847-1.931 1.422.431 2.316 1.63 2.385 3.339.058 1.415.01 2.834.035 4.25.024 1.379-.369 2.895 1.164 3.878h-5.816c-.005-.054-.029-.13-.012-.14 1.113-.676 1.259-1.738 1.226-2.91-.038-1.341.004-2.685-.013-4.027-.017-1.427-.537-2.154-1.611-2.31-1.098-.159-2.053.499-2.422 1.742-.146.493-.205 1.022-.226 1.538-.036.869-.008 1.74-.011 2.61-.005 1.285-.206 2.638 1.198 3.494h-5.839c.011-.072-.001-.176.035-.198 1.056-.621 1.165-1.612 1.155-2.711-.031-3.504-.011-7.009-.011-10.514 0-2.29 0-2.29-1.542-3.898" fill-rule="nonzero"></path><path d="M1.276 21.657H107.5v.94H1.276z"></path><path d="M70.72 12.175c.179.19.367.372.536.57.79.92 1.498 1.927 2.38 2.746 1.187 1.104 2.676 1.371 4.245.984 1.035-.255 1.681-.929 1.822-2.016.146-1.139-.176-2.097-1.241-2.636-.658-.334-1.382-.536-2.079-.789-1.002-.364-2.036-.655-3.003-1.094-1.778-.808-2.704-2.218-2.615-4.202.087-1.956 1.069-3.334 2.873-4.067 2.41-.981 4.76-.754 7.336.691l.841-1.429.213.181v4.917l-.142.066c-.153-.203-.3-.41-.461-.606-.629-.766-1.198-1.595-1.91-2.276-.987-.943-2.213-1.294-3.58-.985-1.048.236-1.788.985-1.924 1.933-.161 1.132.231 2.053 1.27 2.531.963.443 2 .726 3.004 1.08.584.206 1.18.383 1.751.622 1.892.791 2.908 2.217 2.878 4.278-.03 2.111-1.034 3.65-2.986 4.495-2.394 1.037-4.745.804-7.039-.352-.22-.111-.43-.242-.684-.385l-1.141 1.446a26.515 26.515 0 0 1-.246-.11l-.324-5.439.226-.154M7.101 2.515C3.614 1.511 2.197 4.02.71 6.412L.5 6.231l.69-4.963h15.55l.706 4.927-.145.104c-.132-.131-.285-.247-.392-.396-.448-.626-.852-1.286-1.327-1.889-1.216-1.544-2.549-1.974-4.798-1.554v.853c0 3.728.023 7.455-.013 11.182-.012 1.193.268 2.159 1.392 2.733.109.056.239.072.36.107l-.173.219H5.515c.162-.174.245-.317.37-.388.921-.524 1.268-1.341 1.267-2.362-.005-3.976-.001-7.952-.004-11.928-.001-.144-.037-.288-.047-.361M37.606 10.554h4.313c-.192-.907-.316-1.737-.554-2.532-.2-.664-.716-1.083-1.431-1.126-.668-.039-1.205.27-1.568.828-.555.853-.742 1.809-.76 2.83m7.612 1.1h-6.666c-1.104 0-1.104.001-.937 1.12.365 2.456 2.139 3.724 4.495 3.214 1.014-.22 1.704-.855 2.249-1.704.104-.162.354-.229.593-.254-.453 1.938-1.59 3.195-3.488 3.589-2.394.497-4.623.173-6.311-1.803-1.531-1.793-1.718-4.833-.515-7.016 1.1-1.996 3.441-3.141 5.866-2.869 3.171.354 4.929 2.444 4.714 5.723M98.518 17.552h-5.813c0-.095-.019-.171.002-.184 1.155-.711 1.172-1.832 1.163-3.013-.03-3.478-.023-6.957-.005-10.436.007-1.413.156-2.857-1.634-3.531l.171-.141h4.9v.81c0 4.448.008 8.896-.006 13.344-.003 1.199-.013 2.373 1.339 3.007l-.117.144M105.974 17.55h-5.81c0-.097-.018-.174.003-.186 1.168-.704 1.171-1.83 1.161-3.008a740.889 740.889 0 0 1-.004-10.436c.008-1.415.144-2.852-1.617-3.537l.154-.135h4.899v.809c0 4.423.008 8.846-.005 13.269-.003 1.22-.028 2.424 1.219 3.224M91.059 17.555h-5.991c.068-.126.095-.259.173-.304.835-.481 1.068-1.237 1.061-2.143a455.681 455.681 0 0 1-.002-6.404c.005-.915-.298-1.649-1.104-2.129-.124-.074-.268-.114-.403-.169l.16-.212h4.781c0 .573-.003 1.113.001 1.653.017 2.456.055 4.913.044 7.369-.004.904.286 1.592 1.075 2.055.068.04.102.138.205.284M89.992 2.382c-.006 1.165-.849 1.991-2.036 1.996-1.176.006-2.033-.835-2.039-2.001C85.911 1.19 86.815.3 87.998.329c1.176.029 2 .878 1.994 2.053" fill-rule="nonzero"></path></g></svg>