<svg xmlns="http://www.w3.org/2000/svg" width="100%" height="100%" viewBox="0 0 1174 307"><g fill="#B8B8B8" fill-rule="evenodd"><path d="M.83 241.27V.78C1.66.73 2.35.66 3.05.66 29.61.66 56.17.58 82.73.7c14.88.07 29.22 2.97 42.77 9.33 14.25 6.69 25.93 16.59 35.77 28.76 13.37 16.54 21.6 35.36 25.13 56.3 2.54 15.1 2.77 30.25.88 45.42-3.6 28.82-15.07 53.88-36.2 74.12-14.2 13.61-31.13 21.88-50.53 25.14-6.73 1.13-13.5 1.6-20.3 1.61-25.6.03-51.2.01-76.8.01-.85 0-1.71-.08-2.62-.12zm13.5-13.79c.79.05 1.27.1 1.74.1 22.15 0 44.3.05 66.46-.04 8.59-.04 17.03-1.38 25.24-4 18.1-5.78 32.6-16.72 44.41-31.35 13.01-16.11 19.46-34.87 21.65-55.25 1.4-12.94 1.17-25.86-.9-38.73-2.9-18-9.56-34.42-20.69-48.95-7.47-9.76-16.27-18.02-27.01-24.12-13.32-7.57-27.76-10.88-42.96-10.98-21.91-.13-43.82-.04-65.74-.04-.7 0-1.39.08-2.22.13.02 71.11.02 142.08.02 213.23zM1044.15 216.25v90.43c-2.33.24-4.54.09-6.74.12-2.24.03-4.47.01-6.55.01-.2-.19-.27-.24-.32-.3-.05-.06-.13-.12-.14-.18-.05-.31-.11-.63-.11-.95 0-67.42.01-134.84.02-202.27 0-.22.11-.45.21-.82h13.53v25.4c1.28-.34 1.66-1.28 2.22-1.95 6.15-7.4 13.33-13.56 21.91-17.99 11.67-6.02 24.15-8.12 37.16-7.54 10.43.46 20.49 2.66 29.68 7.71 20.07 11.04 32.95 27.6 37.04 50.33 2.76 15.38 1.56 30.59-5.43 44.74-11 22.27-28.78 36.03-53.51 39.85-16.39 2.53-32.21.26-46.85-8.05-7.66-4.35-14.2-10.06-19.93-16.72-.57-.66-1.15-1.31-1.73-1.96-.15.04-.31.09-.46.14zm57.2-102.68c-33.27-.36-58.4 27.87-58.36 58.47.04 31.38 27.28 58.38 58.55 58.33 32.02-.05 58.39-26.85 58.36-58.57-.04-30.99-26.57-58.71-58.55-58.23z" fill-rule="nonzero"></path><path d="M823.7.72h13.27c.07.65.19 1.26.2 1.86.02 2.64.01 5.28.01 7.92 0 56.56.01 113.11-.02 169.67 0 5.72.5 11.34 2.23 16.81 3.58 11.36 11.09 19.43 21.27 25.23 7.27 4.14 15.16 6.35 23.43 7.23 9.87 1.05 19.66.58 29.22-2.29 10.77-3.22 19.96-8.93 27.01-17.79 5.28-6.63 8.09-14.28 8.79-22.7.24-2.86.32-5.75.32-8.63.02-58 .01-115.99.01-173.99V.8h13.77v2.66c0 59.04-.01 118.07.01 177.11 0 8.47-1.02 16.78-4.26 24.66-6.52 15.9-18.22 26.6-33.96 32.98-11.54 4.68-23.67 5.83-36.02 5.4-11-.38-21.58-2.56-31.52-7.36-12.81-6.19-22.7-15.37-28.61-28.51-3.05-6.79-4.58-13.95-5.02-21.36-.14-2.31-.12-4.64-.12-6.96-.01-58.48 0-116.95 0-175.43-.01-1.01-.01-2.04-.01-3.27z"></path><path d="M494.08 168.92H363.9c0 1.33-.03 2.43 0 3.52.24 8.45 1.58 16.71 4.74 24.59 6.49 16.15 18.11 26.66 34.93 31.17 12.7 3.4 25.47 3.23 38.17-.14 8.74-2.31 16.18-6.88 22.19-13.58 3.14-3.5 5.85-7.38 8.75-11.1.48-.62.9-1.3 1.44-2.09 4.1 1.89 8.14 3.74 12.32 5.67-.49.96-.85 1.74-1.29 2.47-11.18 19.14-27.95 30.12-49.65 33.62-12.89 2.08-25.68 1.27-38.14-2.88-22.79-7.6-40.84-28.06-45.4-51.65-2.97-15.39-2.5-30.69 3.53-45.28 9.27-22.4 26.02-36.5 49.72-41.66 16.03-3.49 32.09-2.69 47.34 3.79 20.59 8.74 34.32 23.77 39.77 45.82 1.31 5.3 1.81 10.71 1.9 16.16.03.39-.05.78-.14 1.57zm-127.95-13.37h112.46c0-.4.04-.64-.01-.87-1.5-7.5-4.48-14.33-9.34-20.26-6.81-8.31-15.45-14.07-25.53-17.63-11.68-4.14-23.65-4.41-35.72-2.13-9.22 1.74-17.48 5.59-24.49 11.9-8.57 7.71-13.82 17.48-17.33 28.29-.06.21-.03.45-.04.7z" fill-rule="nonzero"></path><path d="M623.98 116.37c-3.41 2.96-6.61 5.73-9.91 8.59-.36-.27-.69-.47-.96-.72-8.77-8.22-19.37-11.17-31.1-10.5-3.08.17-6.22.72-9.15 1.65-7.1 2.24-11.05 7.34-12.08 14.65-.33 2.35-.46 4.8-.24 7.16.58 6.22 3.79 10.92 8.93 14.35 4.69 3.13 9.87 5.22 15.16 7.08 8.67 3.04 17.28 6.25 25.45 10.5 4.13 2.15 8.02 4.62 11.29 8 6.16 6.36 9.41 13.99 9.98 22.78.31 4.81.07 9.59-1.18 14.28-2 7.51-6.11 13.65-12.04 18.62-7.92 6.64-17.07 10.28-27.32 11.07-9.2.71-18.21-.32-26.8-3.93-11.88-4.99-20.16-13.8-26.5-25.11 3.72-2.51 7.62-4.63 11.59-7.08.43.63.84 1.18 1.2 1.76 2.11 3.51 4.53 6.77 7.38 9.72 5.96 6.17 13.16 9.81 21.7 10.64 6.72.65 13.42.57 20-1.2.92-.25 1.84-.54 2.74-.86 9.24-3.32 14.09-10.07 15.27-19.65.39-3.18.56-6.41-.18-9.55-1.86-7.83-6.27-13.95-13.54-17.35-7.44-3.48-15.23-6.19-22.85-9.29-4.58-1.87-9.17-3.74-13.67-5.8-2.46-1.13-4.8-2.56-7.07-4.04-8.2-5.36-12.37-13.11-13.3-22.75-.42-4.34-.46-8.68.83-12.85 4.28-13.8 13.63-22.67 27.68-25.36 18-3.45 34.04 1.38 47.56 13.97.34.29.63.66 1.13 1.22zM684.34 207.72c.54.87.92 1.56 1.39 2.2 1.92 2.65 3.7 5.43 5.85 7.89 5.84 6.68 13.08 10.89 22.04 11.92 7.13.82 14.22.76 21.18-1.12 7.7-2.08 13.58-6.4 16.27-14.19.83-2.39 1.31-4.95 1.61-7.47 1.09-9.34-2.31-16.95-9.42-22.91a22.42 22.42 0 0 0-5.7-3.45c-7.15-2.98-14.4-5.7-21.57-8.64-5.17-2.12-10.31-4.32-15.37-6.69-2.3-1.07-4.46-2.51-6.55-3.98-6.77-4.79-10.52-11.46-11.81-19.56-.73-4.62-.95-9.28.22-13.83 3.5-13.66 12.44-22.12 25.69-26.33 19.23-3.96 36.1.54 50.43 14.11.16.15.25.38.51.78-3.24 2.81-6.49 5.63-9.83 8.53-.42-.33-.8-.58-1.13-.89-8.68-8.04-19.13-10.92-30.7-10.38-2.54.12-5.11.49-7.57 1.12-8.71 2.23-13.48 8.17-14.22 17.11-.78 9.37 2.89 16.28 11.03 20.9 4.54 2.57 9.35 4.5 14.27 6.2 8.61 2.99 17.14 6.19 25.15 10.58 2.72 1.49 5.41 3.15 7.79 5.12 8.09 6.7 12.11 15.5 12.73 25.91.26 4.33-.08 8.63-1.11 12.86-1.76 7.21-5.45 13.26-10.96 18.21-8.27 7.43-18.03 11.42-29.07 12.2-7.56.53-15.02-.15-22.28-2.48-10.4-3.34-18.68-9.64-25.17-18.34-1.91-2.56-3.57-5.29-5.52-8.22 3.97-2.53 7.86-4.78 11.82-7.16zM266.7 241.23h-13.64V102.28h13.53c.28 5.89 0 11.76.17 18.11.58-.69.94-1.03 1.2-1.44 2.8-4.42 6.17-8.36 10.02-11.89 4.86-4.47 10.49-6.67 17.2-6.65 11.51.02 21.63 3.66 30.8 10.93-2.38 3.7-4.78 7.42-7.26 11.27-.92-.59-1.71-1.1-2.5-1.61-6.33-4.17-13.17-6.83-20.84-7.07-4.5-.14-8.5 1.18-12.12 3.79-5.87 4.24-9.98 9.85-12.87 16.42-2.48 5.63-3.72 11.5-3.7 17.7.06 28.72.03 57.44.03 86.16-.02 1.01-.02 2.04-.02 3.23z"></path></g></svg>